<svg id="Layer_1" data-name="Layer 1" xmlns="http://www.w3.org/2000/svg" viewBox="0 0 140.7 24.32"><defs><style>.cls-1,.cls-2{fill:#ca2420}.cls-2{fill-rule:evenodd}</style></defs><title>Nomura-Red</title><path class="cls-1" d="M24.7 15c0-8.11 5.05-12.17 11.3-12.17S47.25 6.89 47.25 15 42.2 27.14 36 27.14s-11.3-4-11.3-12.14M36 24.06c3.07 0 5.56-3.22 5.56-9.08S39.05 5.91 36 5.91 30.41 9.18 30.41 15s2.49 9.06 5.59 9.06" transform="translate(-2.84 -2.83)"/><path class="cls-2" d="M0 .88v22.53h3.92V8.28L16 23.41h3.3V.88h-3.73V13.3L5.53.88H0z"/><path class="cls-2" d="M129 3.72l-9.14 22.53h3.95l2.52-6.2h8.3l2.55 6.2h6.4l-9.27-22.53H129zm-1.4 13.1l2.86-7.06 2.86 7.06h-5.72zM92.2 18.48c-.1 2.06-.26 4.11-2.55 4.88a7 7 0 0 1-3.95-.09 3.23 3.23 0 0 1-1.21-.77 5.54 5.54 0 0 1-1.09-3.39V3.71h-5.87v14.77a9.24 9.24 0 0 0 1.71 5.74c2.28 2.82 6.45 3.22 9.82 2.8a8.55 8.55 0 0 0 5.41-2.5 7.74 7.74 0 0 0 1.83-4.19 10.27 10.27 0 0 0 .13-1.85V3.71H92.2v14.77zM106.06 6.89c2.59 0 5.16-.44 6.28 2.25.44 1.06.47 3.47-.56 4.5-1.24 1.22-3.12 1.34-4.75 1.48l6 11.13h6.18l-5.47-9.92c3.26-1.14 4.79-3 4.63-6.51-.17-3.8-3.38-6.1-7-6.1h-11.16v22.53h5.84V6.89z" transform="translate(-2.84 -2.83)"/><path class="cls-2" d="M65.17 23.41L56.47.89H51.9l-8.45 22.52h4.1l5.69-15.22 5.78 15.22h6.15zM65.45.88h-4.78L59.2 4.74l2.09 5.39.75-1.94 5.62 15.22h6.5L65.45.88z"/><path class="cls-2" d="M54.82 15.55l-2.92 7.86h3.73l1.09-2.96-1.9-4.9z"/></svg>